<?xml version="1.0" encoding="utf-8"?><svg xmlns="http://www.w3.org/2000/svg" xmlns:xlink="http://www.w3.org/1999/xlink"><symbol viewBox="-4.69 -4.69 59.38 59.38" id="svg_love" xmlns="http://www.w3.org/2000/svg"><path fill="none" d="M-1-1h582v402H-1z"/><path fill="#cc181e" d="M25.85 10.126c2.018-4.783 6.628-8.125 11.99-8.125 7.223 0 12.425 6.179 13.079 13.543 0 0 .353 1.828-.424 5.119-1.058 4.482-3.545 8.464-6.898 11.503L25.85 48 8.402 32.165c-3.353-3.038-5.84-7.021-6.898-11.503-.777-3.291-.424-5.119-.424-5.119C1.734 8.179 6.936 2 14.159 2c5.363 0 9.673 3.343 11.691 8.126z"/><path fill="#ED7161" d="M6 18.078a1 1 0 0 1-1-1c0-5.514 4.486-10 10-10a1 1 0 1 1 0 2c-4.411 0-8 3.589-8 8a1 1 0 0 1-1 1z"/></symbol><symbol viewBox="-18.75 -18.75 237.5 237.5" id="svg_ready" xmlns="http://www.w3.org/2000/svg"><path fill="none" d="M-1-1h202v202H-1z"/><path fill="#cc181e" d="M120 2.5c-5.7 1.8-12.4 7.5-15.1 12.7-1.1 2.2-2.3 6.5-2.6 9.5-.5 4.7 1.1 24 2.3 28.5.4 1.4 0 1.5-3.2.8-6.3-1.4-9.5-.3-25.4 9.4-27.8 16.7-25.8 15.1-38.3 31.9C26.2 110.6 23 115.7 23 118.4c0 3.6 16.5 31.3 40.3 67.8L73 201h55l1.5-3.3C131.3 193.8 182 65 182 64.3c0-.2-1.9-1.3-4.2-2.3-8-3.6-16.7-2-23.4 4.5l-4.1 4-.7-17.9c-.3-9.9-.6-22-.6-26.9v-9l-6.2.6c-3.5.4-7.2.8-8.3.9-1.1.2-2-.3-2.2-1.2-2.6-17-2.3-16-5.1-15.9-1.5 0-4.7.7-7.2 1.4zm6 11.7c2.6 16.8 8.9 85.4 9 99.1 0 1 .5 1.5 1 1.2 1.6-1 1.2-55.8-.5-70.5-2.2-18.8-2.3-18.7 2.5-20.1 2.2-.7 4.3-.9 4.7-.5.4.4.9 23.4 1.1 51.1.4 44.7 1 56 2.6 48.2.3-1.2 1.2-10.4 2-20.5 1.6-18.8 2.6-22.5 7.8-29.2 4.2-5.4 13.7-8.8 17.4-6.2.6.4-7.5 22.2-23 61.8-13.3 33.5-24.7 62.2-25.3 63.7L124 195H76.1l-7.7-11.8c-12.7-19.4-32.4-51.3-36.2-58.4l-3.5-6.7 2.8-4.3C34 110.1 51.1 86.9 53 84.7c.3-.4 3 2.2 5.8 5.8 6.6 8.2 7 12.2 1.8 20.8l-3.5 5.8 4 2.9c8.4 6.1 20.6 6.2 29.2.3 4-2.8 7.7-7.9 7.7-10.8 0-.9-1.6-6.8-3.5-13L91 85.2l-7.6 3.9c-10.1 5.3-13.7 5.2-22.1-.2-3.5-2.3-6.2-4.6-6-5.2.3-.9 28.9-18.8 36.8-23.1 3.9-2 8.9-1.7 12.2.8 1.1.9 4.2 9.4 8.3 22.7 6.3 20.3 7.7 23.9 8.9 22.8.3-.3-1.9-11.1-4.9-24-5.7-24.7-9.1-48.3-8.4-57.4.6-7.5 4.4-12.9 11.1-16 2.8-1.3 5.2-2.3 5.4-2.2.1.2.7 3.3 1.3 6.9zM90 102l2.3 8.1-2.8 2.9c-5.4 5.7-13.8 7.2-21.7 4.1l-2.7-1 2.4-5.3c1.4-2.9 2.5-6.7 2.5-8.4 0-3 .2-3.2 4.8-3.8 2.6-.4 6.3-1.5 8.2-2.6 1.9-1.1 3.8-1.9 4.1-2 .3 0 1.7 3.6 2.9 8z"/></symbol></svg>