<?xml version="1.0" standalone="no"?>
<!DOCTYPE svg PUBLIC "-//W3C//DTD SVG 1.1//EN" "http://www.w3.org/Graphics/SVG/1.1/DTD/svg11.dtd" >
<svg xmlns="http://www.w3.org/2000/svg" version="1.1">
    <metadata></metadata>
    <defs>
        <font id="san_diego_fontmedium" horiz-adv-x="20">
            <font-face units-per-em="2048" ascent="1638" descent="-410"/>
            <missing-glyph horiz-adv-x="860"/>
            <glyph horiz-adv-x="0"/>
            <glyph unicode="&#xd;" horiz-adv-x="681"/>
            <glyph unicode=" " horiz-adv-x="860"/>
            <glyph unicode="&#x09;" horiz-adv-x="860"/>
            <glyph unicode="&#xa0;" horiz-adv-x="860"/>
            <glyph unicode="!" horiz-adv-x="258"
                   d="M29 213q-14 66 1 83t91 17q74 0 95.5 -18.5t21.5 -81.5q0 -59 -19.5 -79.5t-77.5 -20.5q-51 0 -77.5 23.5t-34.5 76.5zM33 1288q6 70 104 70h101v-459q0 -180 -1 -257t-11.5 -135t-25 -70.5t-46.5 -22.5q-33 -12 -64 -14.5t-37 6.5q-12 12 -19 342.5t-1 539.5z"/>
            <glyph unicode="#" horiz-adv-x="888"
                   d="M20 594q0 80 80 80t80 16q0 8 25 80q12 37 -1.5 51.5t-58.5 14.5q-59 0 -81.5 48t3 99t87.5 61q47 6 70.5 36t29.5 98q15 125 27 172q6 18 32.5 32.5t53.5 14.5q39 0 48 -35t-1 -145q-8 -111 3 -146t54 -35q35 0 57.5 41t38.5 140q14 109 35 144.5t70 35.5q53 0 63 -28 t-8 -148q-18 -115 -8 -149t65 -48q59 -14 79 -61.5t-9 -87t-90 -39.5q-55 0 -77.5 -18.5t-22.5 -61.5q0 -82 75 -82q43 0 55.5 -17.5t0.5 -62.5q-8 -33 -35 -56.5t-58 -23.5q-41 0 -62.5 -42t-37.5 -159q-18 -125 -37.5 -162.5t-70.5 -37.5q-37 0 -50.5 13t-13.5 51t12 136 q8 61 10.5 93t2.5 57.5t-9.5 34t-21.5 12.5t-39 4q-47 0 -65.5 -22.5t-18.5 -85.5q0 -135 -30.5 -214t-86.5 -79q-39 0 -48 37.5t-3 162.5q8 123 -1 162t-48 39q-27 0 -45.5 22.5t-18.5 57.5zM342 755q0 -81 80 -81t80 81t-80 81t-80 -81z"/>
            <glyph unicode="$" horiz-adv-x="843"
                   d="M20 514q0 37 51.5 42t110 -19.5t80.5 -63.5q16 -33 41 -56.5t39 -23.5t19.5 35t0 86t-15.5 102.5t-25.5 90t-31.5 45.5q-41 14 -135 108q-100 98 -94 239.5t114 241.5q33 29 94.5 86.5t73.5 65.5q94 90 117 45q4 -10 4 -25q0 -14 36 -39.5t85 -43.5q49 -14 102 -60.5 t78 -91.5q41 -82 35 -100.5t-80 -36.5q-57 -16 -94 -6t-66 49q-37 49 -45 33t-12 -130q0 -172 57 -172q20 0 68.5 -24.5t91.5 -59.5q61 -49 82.5 -99t21.5 -142q0 -160 -49 -245t-176 -136q-55 -25 -95 -58.5t-40 -58.5t-11.5 -42t-29.5 -17q-14 0 -27.5 17.5t-13.5 42 t-39 59t-96 61.5q-90 41 -158 132t-68 169zM270.5 1117q-0.5 -42 10.5 -68q25 -51 31 -51t18 51q8 27 8 68.5t-8 70.5q-12 49 -18.5 49t-30.5 -49q-10 -29 -10.5 -71zM471 547q10 -113 61 -133q41 -18 62 49q8 29 8 72q0 63 -16.5 95t-55.5 36q-45 10 -57 -12.5t-2 -106.5z "/>
            <glyph unicode="%" horiz-adv-x="1413"
                   d="M24.5 1168q16.5 129 75.5 190q90 90 225.5 83t213.5 -108q35 -45 59.5 -105.5t24.5 -99.5q0 -90 -98.5 -191t-182.5 -101q-72 0 -164 44t-125 93q-45 66 -28.5 195zM182 1128q0 -45 68.5 -83.5t124.5 -20.5q33 14 43 64.5t-6.5 100.5t-53.5 64q-61 23 -73.5 21t-55.5 -45 q-47 -49 -47 -101zM381 176q-6 37 108 307q14 33 41 99q177 424 263 647q45 113 80.5 161t74.5 48q33 0 54.5 -11.5t21.5 -29.5q0 -35 -248 -641q-59 -141 -96 -228.5t-71 -160t-55.5 -110.5t-43 -63.5t-38.5 -32.5t-38 -7q-49 0 -53 22zM868 256q-170 213 15.5 398.5 t398.5 15.5q68 -51 95.5 -142.5t6 -178.5t-85.5 -132q-106 -76 -232 -63.5t-198 102.5zM977 495q-16 -46 8 -106q18 -31 45 -53.5t47 -22.5q51 0 99.5 48.5t48.5 99.5q0 20 -22.5 47t-53.5 47q-53 27 -104.5 6.5t-67.5 -66.5z"/>
            <glyph unicode="&#x26;"/>
            <glyph unicode="(" horiz-adv-x="509"
                   d="M29.5 675q-21.5 177 19.5 353q18 72 74 169t115 165q57 61 116.5 108.5t79.5 47.5q37 0 50.5 -56.5t-3 -126t-55.5 -102.5q-104 -86 -147 -240.5t-14.5 -322.5t122.5 -293q109 -147 96 -244l-12 -100l-129 80q-121 74 -206 229.5t-106.5 332.5z"/>
            <glyph unicode=")" horiz-adv-x="512"
                   d="M20.5 138.5q2.5 56.5 33 140t71.5 131.5q137 147 141 384.5t-129 405.5q-31 39 -57.5 107t-34.5 123q-6 41 -8 65.5t4 39.5t17.5 16t34 -10t51 -32.5t73.5 -58.5q133 -113 204 -286t71 -349t-71 -349t-204 -286q-53 -45 -103.5 -76.5t-64.5 -31.5q-31 10 -28.5 66.5z"/>
            <glyph unicode="*" horiz-adv-x="563"
                   d="M20 1137q0 25 24 42t56 17q51 0 59.5 14.5t-14.5 63.5q-18 29 -22 58.5t6 41.5q33 33 65.5 21.5t55.5 -62.5q18 -45 28.5 -45t47.5 49q33 43 67.5 47.5t43.5 -27.5t-15 -83q-27 -49 -18.5 -63.5t59.5 -14.5q33 0 56.5 -17.5t23.5 -42t-18.5 -43t-43.5 -18.5 q-27 0 -42 -18.5t-9 -44.5q8 -41 -13.5 -66.5t-52 -18.5t-47.5 46q-18 45 -29.5 45t-45.5 -45q-20 -31 -48 -42t-49 1q-27 18 -26.5 36.5t27 51.5t18.5 44t-60 11q-37 0 -60.5 17.5t-23.5 44.5z"/>
            <glyph unicode="+" horiz-adv-x="884"
                   d="M20 760q0 80 21.5 97t120.5 17q84 0 116.5 18.5t47.5 80.5q10 41 9 83t-13 56q-18 31 55 41q29 4 65 4q131 0 123 -37q0 -4 -2 -8q-12 -14 -13 -56t9 -83q14 -61 46 -80t118 -19q96 0 118.5 -17t22.5 -97q0 -82 -23.5 -103.5t-125.5 -29.5q-109 -10 -131.5 -32 t-24.5 -122q0 -94 -19.5 -116.5t-98.5 -22.5t-97 22.5t-18 116.5q-2 100 -24.5 121.5t-127.5 32.5q-106 8 -130 29.5t-24 103.5z"/>
            <glyph unicode="," horiz-adv-x="278"
                   d="M23.5 299.5q-15.5 71.5 25.5 110.5q12 12 44 17t69 -1q57 -8 80.5 -84t12.5 -162t-55 -157.5t-104 -71.5q-25 0 -32 26.5t6.5 64.5t42.5 67q31 31 26.5 47t-47.5 41q-53 31 -68.5 102.5z"/>
            <glyph unicode="-" horiz-adv-x="522"
                   d="M20 654.5q0 27.5 1.5 42t11.5 27.5t21.5 17t44 8.5t65.5 5.5t98.5 1t98 -1t64.5 -5.5t43 -8.5t21.5 -17t11.5 -27.5t1 -42t-1 -41t-11.5 -27t-21.5 -18.5t-43 -9t-64.5 -4h-98h-98.5t-65.5 4t-44 9t-21.5 18.5t-11.5 27t-1.5 41z"/>
            <glyph unicode="." horiz-adv-x="276" d="M35 354q10 14 47 26.5t78 12.5q61 0 78.5 -22.5t17.5 -97t-17.5 -97t-78.5 -22.5q-74 0 -117 69.5t-8 130.5z"/>
            <glyph unicode="/" horiz-adv-x="716"
                   d="M23 41q4 10 40.5 112.5t105.5 285.5t130 347q145 397 215 545t111 148q31 0 51 -8.5t20 -20.5q0 -23 -268 -743q-86 -231 -138 -362.5t-93 -214.5t-66 -110.5t-49 -27.5q-33 0 -49.5 13t-9.5 36z"/>
            <glyph unicode="0" horiz-adv-x="882"
                   d="M20 665.5v170v170t5.5 116t10.5 83t21.5 56t31.5 50t48 51.5q72 70 130.5 93.5t162.5 23.5q176 0 270.5 -69t132 -223.5t27.5 -430.5q-8 -186 -18.5 -260t-32 -116t-78.5 -91q-127 -109 -302 -102.5t-292 122.5q-33 35 -48 51.5t-31.5 50t-21.5 55t-10.5 83t-5.5 117z M231 630q7 -75 45 -136q55 -80 146.5 -96.5t152.5 44.5q31 31 42.5 212.5t0 362.5t-42.5 212q-49 47 -137 46t-129 -46q-14 -20 -34.5 -124t-32.5 -222q-18 -178 -11 -253z"/>
            <glyph unicode="1" horiz-adv-x="401" d="M20 1421q0 66 29 81.5t152 15.5h180v-1285h-248l17 527q4 127 6 207t0 144.5t-5.5 97t-11.5 56t-18 32t-29 12.5q-33 6 -52.5 37.5t-19.5 74.5z"/>
            <glyph unicode="2" horiz-adv-x="860"
                   d="M23 233v101q0 55 64.5 141t215.5 227q233 219 288.5 332t-28.5 203q-78 86 -154.5 76t-138.5 -117q-70 -121 -155 -121q-68 0 -87.5 50.5t10 127t101.5 148.5q100 100 235.5 117.5t253 -50t173.5 -198.5q68 -154 17.5 -285t-247.5 -319l-235 -232h244q68 0 100.5 -1 t66 -5t45 -8t21.5 -17.5t11 -28t1 -40.5q0 -76 -50 -88.5t-351 -12.5h-401z"/>
            <glyph unicode="3" horiz-adv-x="892"
                   d="M28 538.5q13 16.5 83 16.5q51 0 101 -26.5t87 -73.5q70 -90 144.5 -96.5t144.5 71.5q78 86 54 178t-138 148q-121 57 -131.5 140t98.5 132q90 43 96 103.5t-75 105.5q-49 27 -71 22.5t-34 -42.5q-14 -33 -77.5 -49.5t-122 -8.5t-58.5 41q0 61 55.5 136t118.5 102 q96 41 217 15t185 -99q57 -72 65 -192t-37 -210q-43 -78 -4 -78q16 0 48 -36.5t61 -89.5q57 -113 24 -259.5t-133 -238.5q-100 -90 -289.5 -82t-285.5 104q-39 43 -76 99.5t-49 93.5q-14 57 -1 73.5z"/>
            <glyph unicode="4" horiz-adv-x="966"
                   d="M20 559q0 35 89.5 195t212.5 346q127 193 217 301t151.5 143t91 -16t36.5 -177t-15 -339q-6 -78 -10.5 -122t-4.5 -84t2.5 -56.5t12.5 -32t22.5 -20.5t34.5 -11q51 -12 73.5 -62.5t4.5 -99.5t-70 -63q-80 -16 -57 -103q16 -55 -3.5 -70.5t-100.5 -15.5q-78 0 -100.5 18.5 t-22.5 82.5q0 74 -39 87t-244 13q-70 0 -112 1t-76.5 5t-50 8.5t-26.5 15.5t-13.5 22.5t-2.5 33.5zM262 674h322v221q0 221 -17 221q-14 0 -161 -221z"/>
            <glyph unicode="5" horiz-adv-x="923"
                   d="M20 555q0 35 57.5 41t124 -18.5t91.5 -63.5q43 -66 153.5 -78t167.5 45q45 45 48.5 142.5t-39.5 175.5q-33 61 -151 75.5t-150 -38.5q-25 -37 -72 -39t-105 34q-33 20 -33.5 83t29.5 247q52 301 68 328q6 12 92 20.5t205 8.5q201 0 239.5 -13.5t38.5 -87.5q0 -31 -4 -46 t-12 -28.5t-33.5 -17.5t-57.5 -6t-93 -2q-84 0 -143.5 -8.5t-59.5 -20.5q0 -37 -27 -127q-16 -66 -6 -77t74 3q109 29 221.5 -27t186 -168t73.5 -237q0 -102 -61.5 -222t-134.5 -161q-33 -14 -110 -26.5t-146 -12.5q-117 0 -170.5 25t-135.5 115q-125 147 -125 182z"/>
            <glyph unicode="6" horiz-adv-x="897"
                   d="M20 666q0 125 39.5 218t178.5 304q84 127 122.5 183t79.5 95t70 45.5t80 6.5h137l-117 -168q-168 -256 -159 -267q4 -4 24 9q37 25 180 -27q123 -53 182.5 -181t35 -275.5t-129.5 -250.5q-59 -63 -119.5 -83.5t-181.5 -20.5q-123 0 -181 20.5t-128 90.5q-70 68 -91.5 126 t-21.5 175zM242 674q0 -86 67.5 -163t145.5 -77q55 0 103 45t69.5 107.5t15.5 130t-49 110.5q-20 20 -64.5 33.5t-87.5 13.5q-201 0 -200 -200z"/>
            <glyph unicode="7" horiz-adv-x="804"
                   d="M20 1257q0 74 48.5 87.5t332.5 13.5q276 0 329.5 -12.5t53.5 -75.5q0 -41 -66.5 -225.5t-158.5 -401.5q-170 -401 -219 -469q-41 -57 -102 -61h-41h-131l163 352q49 109 135.5 298t102.5 224l72 170h-258q-188 0 -224.5 13t-36.5 87z"/>
            <glyph unicode="8" horiz-adv-x="886"
                   d="M28.5 548q20.5 87 86.5 154q51 53 59 84t-20 58q-63 63 -46 199t99 214q94 100 239 101q145 0 243.5 -96.5t98.5 -237.5q0 -53 -13 -105.5t-30 -70.5q-27 -29 -18.5 -62.5t57.5 -95.5q76 -96 82 -196.5t-57 -221.5q-57 -111 -141 -155.5t-240 -44.5q-98 0 -183 43 t-137.5 112.5t-76 151.5t-3 169zM232.5 485.5q-3.5 -36.5 58.5 -125.5q51 -72 141 -84t148 46q51 51 45.5 143t-62.5 145q-63 63 -123.5 59.5t-132 -75.5t-75 -108.5zM328.5 969q31.5 -70 111.5 -86q41 -8 80 31.5t45.5 91t-22.5 94.5q-43 55 -96.5 53t-104.5 -61 q-45 -53 -13.5 -123z"/>
            <glyph unicode="9" horiz-adv-x="917"
                   d="M28.5 1063q14.5 94 72 178t147.5 133q92 55 180 64q106 0 233 -74t173 -164q63 -117 62 -217t-64.5 -231t-223.5 -367q-106 -158 -153 -194.5t-144 -36.5h-139l123 184q35 47 63.5 92t41 71.5t8.5 28.5q-2 2 -20.5 10.5t-57.5 25t-66 28.5q-92 37 -153.5 112.5t-79 169 t-3 187.5zM256 995q0 -86 66.5 -162.5t142.5 -76.5q53 0 100 46t70.5 107.5t18.5 130t-46 109.5q-20 20 -64 33.5t-87 13.5q-201 0 -201 -201z"/>
            <glyph unicode=":" horiz-adv-x="272"
                   d="M27 250q-14 37 6 50t94 13q78 0 101.5 -18.5t23.5 -81.5q0 -59 -20.5 -79.5t-79.5 -20.5q-43 0 -72 10t-29 27q1 26 -24 100zM51 855q0 60 20.5 80.5t80 20.5t80 -20.5t20.5 -80.5t-20.5 -79.5t-80 -19.5t-80 19.5t-20.5 79.5z"/>
            <glyph unicode=";" horiz-adv-x="272"
                   d="M27 338q24 71 24 100q0 14 30 24.5t71 10.5q68 0 84 -25.5t16 -130.5q0 -113 -49 -198.5t-115 -85.5q-25 0 -33 27.5t2.5 62.5t34.5 49q47 31 39 65.5t-63 34.5q-63 0 -41 66zM51 1036.5q0 75.5 18.5 98t82 22.5t82 -22.5t18.5 -98t-18.5 -98.5t-82 -23t-82 23 t-18.5 98.5z"/>
            <glyph unicode="&#x3c;" horiz-adv-x="806"
                   d="M21.5 737q-9.5 41 26.5 99.5t114 132t215 184.5q141 115 253.5 198t129.5 87q12 0 19 -39t7 -94q0 -88 -43 -145.5t-200 -180.5l-242 -188l242 -189q162 -129 201.5 -184.5t41.5 -157.5v-151l-323 251q-244 195 -383 299q-49 37 -58.5 78z"/>
            <glyph unicode="=" horiz-adv-x="884" d="M20 555v240h334q221 0 325.5 -11.5t144.5 -41t40 -91.5q0 -74 -54 -85t-368 -11h-422zM20 956v201h844v-201h-844z"/>
            <glyph unicode="&#x3e;" horiz-adv-x="804"
                   d="M20 209q0 92 42 149.5t200 180.5q100 80 161.5 142t51.5 75q-16 12 -242 196q-137 111 -175 166.5t-38 147.5q0 115 27 114q10 0 25 -10q393 -299 552.5 -442.5t159.5 -196.5q0 -80 -362 -371q-94 -76 -182 -144.5t-140.5 -106t-58.5 -37.5q-20 0 -21 137z"/>
            <glyph unicode="?" horiz-adv-x="798"
                   d="M20 1108q0 74 70 167t148 122q94 41 174 34.5t172 -61.5q176 -106 192.5 -274t-133.5 -336q-57 -63 -99 -129t-42 -92q0 -66 -120 -66t-120 62q0 70 60.5 180t136.5 176q72 63 81 133t-45.5 124t-126 45t-106.5 -77q-27 -49 -86 -70.5t-107.5 -4t-48.5 66.5zM262 252.5 q0 62.5 22.5 82t97.5 19.5t97.5 -19.5t22.5 -82t-22.5 -80.5t-97.5 -18t-97.5 18t-22.5 80.5z"/>
            <glyph unicode="@" horiz-adv-x="1306"
                   d="M22.5 768q-8.5 135 30.5 256t125 222.5t205 154.5q154 70 307.5 71t275 -58.5t206.5 -177.5t106 -271q20 -158 -7.5 -265.5t-109.5 -185.5q-70 -66 -206 -78t-171 41q-23 47 -69 0q-53 -53 -168 -40.5t-180 77.5q-82 82 -82 236.5t82 257.5q66 84 193.5 125t174.5 -9 q18 -18 65.5 -23t92.5 3q98 18 109.5 -27t-29.5 -295q-37 -229 35 -219q35 4 90 72q66 80 68.5 222t-56.5 259q-74 139 -222.5 200.5t-312 27t-278.5 -159.5q-82 -90 -123 -196.5t-39 -206t42 -192.5t109.5 -163t173 -112t224.5 -42q78 0 146.5 14.5t89.5 35.5 q29 27 43 21.5t30 -46.5q29 -78 -41.5 -110.5t-267.5 -32.5q-213 0 -354.5 86t-237.5 274q-61 119 -69.5 254zM495.5 740.5q2.5 -52.5 30 -84t63.5 -45t80 7t79 71.5q39 57 43 95t-23 85q-45 88 -126 83t-124 -101q-25 -59 -22.5 -111.5z"/>
            <glyph unicode="A" horiz-adv-x="1327"
                   d="M20 20q0 50 117 318q18 41 47 108q66 141 188 419t142 323q51 119 95 205t53.5 86t53.5 -86t95 -205q147 -344 330 -742q162 -362 166 -415q2 -35 -35 -39h-23q-57 0 -93 40t-83 161l-84 200h-655l-84 -200q-49 -117 -86 -159t-90 -42q-54 0 -54 28zM426 594h475 l-108 242q-113 238 -130 238t-128 -238z"/>
            <glyph unicode="B" horiz-adv-x="1126"
                   d="M20 33v1446h402q315 0 466.5 -42t192.5 -141q26 -71 26 -179q0 -40 -4 -85q-13 -166 -63 -217q-45 -45 -45 -65.5t45 -71.5q63 -70 64 -277q0 -129 -18.5 -181t-86.5 -103q-70 -55 -165 -69.5t-375 -14.5h-439zM221 154h281q172 0 242.5 15t119.5 64q78 78 78 180.5 t-78 180.5q-49 49 -119.5 64.5t-242.5 15.5h-281v-520zM221 831l330 13q92 2 136 4t91 8t63.5 11t36 20.5t25.5 30t17 43.5q21 60 21 117q0 48 -15 93q-33 99 -123 138q-41 20 -141.5 34.5t-198.5 14.5h-242v-527z"/>
            <glyph unicode="C" horiz-adv-x="1302"
                   d="M22 815q8 125 60 250q63 150 140 230.5t222 146.5q159 72 306 72q143 0 276 -68q117 -57 137 -121q3 -10 3 -18q0 -34 -52 -39q-20 -2 -49 2q-104 14 -281 35q-40 5 -78 5q-299 0 -448 -302q-65 -134 -64 -250q0 -38 6 -74q28 -146 183 -299q98 -100 157.5 -126 t192.5 -26q201 0 305 80q90 72 136 77h7q42 0 83 -52q18 -21 18 -41q0 -15 -10 -29q-23 -32 -121 -96q-113 -74 -233 -106q-91 -24 -178 -23q-27 0 -54 2q-111 10 -216 53t-189 113t-145 166q-62 97 -92 205q-23 85 -23 179q-1 26 1 54z"/>
            <glyph unicode="D" horiz-adv-x="1122"
                   d="M20 104v1375h359q223 0 307 -15.5t154 -70.5q190 -147 246 -423q18 -91 17 -178q0 -177 -75 -337q-35 -76 -61.5 -122t-64.5 -86t-77 -60.5t-103.5 -36t-138 -21.5t-186.5 -8zM180 272h262q211 0 307.5 56.5t153.5 210.5q35 89 38 205v28q-1 100 -19 192 q-22 104 -67.5 190.5t-102.5 119.5q-37 16 -132.5 29.5t-193.5 13.5h-246v-1045z"/>
            <glyph unicode="E" horiz-adv-x="843"
                   d="M20 72v1366h402q283 0 342 -11.5t59 -68.5q0 -51 -55 -65.5t-289 -22.5l-346 -13l-8 -213l-4 -208h354q260 0 304 -13.5t44 -88.5t-43 -87t-295 -12h-335l-17 -184q-4 -57 -5 -104q0 -17 1 -31q2 -58 8 -66q16 -16 352 -17q84 0 132.5 -1t90.5 -4t60.5 -8t31.5 -15 t16 -21.5t3 -29.5q0 -57 -59 -69.5t-342 -12.5h-402z"/>
            <glyph unicode="F" horiz-adv-x="1044"
                   d="M20 715v723h506q403 0 459 -19q33 -11 33 -45v-8q0 -6 -2 -12q-2 -23 -7 -34t-23.5 -22.5t-42 -15.5t-77 -9t-115 -6t-167.5 -1l-422 -9q-12 -229 -25 -462h887v-201h-883v-301q0 -180 -12 -240.5t-49 -60.5q-12 0 -21.5 10t-16.5 42t-11 78t-6 133t-3.5 191.5 t-1.5 268.5z"/>
            <glyph unicode="G" horiz-adv-x="1402"
                   d="M32 654q-10 62 -10 124q0 92 23 180q39 146 140.5 272.5t248.5 194.5q90 40 228 40q38 0 80 -3q192 -14 294 -80q81 -53 81 -71t-44 -49q-44 -34 -83 -34h-2q-40 1 -124 38q-97 39 -187 39q-180 0 -335 -152q-166 -162 -166 -360v-9q4 -204 178 -378q86 -86 144.5 -110 t189.5 -24q119 0 185.5 22.5t138.5 82.5q51 43 88 85t37 56t-76 25.5t-184 11.5q-143 0 -203 12.5t-60 42.5q0 51 167 72q77 9 165 9q104 0 223 -13l213 -23l-92 -182q-96 -186 -237.5 -273t-345.5 -87q-193 0 -321 59t-232 197q-96 127 -122 285z"/>
            <glyph unicode="H" horiz-adv-x="1085"
                   d="M20 29v1493l113 -13q82 -8 95.5 -49t13.5 -276v-310h622v322q0 240 12.5 281t88.5 41h100v-1485h-100q-74 0 -87.5 41t-13.5 260v305q-311 -12 -622 -25v-280q-4 -217 -21 -254q-14 -31 -76 -37q-6 -2 -16 -2z"/>
            <glyph unicode="I" horiz-adv-x="282" d="M20 -8v1526h242v-1526h-242z"/>
            <glyph unicode="J" horiz-adv-x="915"
                   d="M20 311q0 25 35 47q19 11 37 11q40 0 80 -52q57 -68 146.5 -115.5t154.5 -47.5q27 0 74 28.5t86 71.5q29 25 42 40t26.5 50t18.5 62.5t9 102.5t4 145.5v213.5q0 215 8.5 374t20.5 167q20 29 80 29q31 0 42 -115t11 -436q0 -356 -14.5 -477t-65.5 -205q-78 -127 -222 -173 q-70 -22 -141 -22q-75 0 -152 25q-148 49 -232 178q-48 72 -48 98z"/>
            <glyph unicode="K" horiz-adv-x="1265"
                   d="M20 -51v1493l109 -12q23 -2 35 -4.5t26.5 -8.5t19.5 -11t12 -23.5t8 -34.5q2 -16 4 -50q2 -22 1 -42q-1 -12 -1 -24q-2 -32 -1 -91l-4 -273l289 285q193 193 265.5 239t181.5 46h159l-340 -342l-342 -340l402 -402l401 -403h-155q-78 0 -127.5 21.5t-117 82t-214.5 217.5 q-123 136 -223 226q-94 85 -116 84h-3q-14 -2 -29.5 -95.5t-17.5 -214.5q-2 -55 -3 -86.5t-3.5 -67.5t-5.5 -53.5t-6 -38t-10 -28.5t-13 -16.5t-19.5 -11.5t-25 -5t-31.5 -6z"/>
            <glyph unicode="L" horiz-adv-x="1206" d="M20 -8v1491q104 -12 209 -25l4 -631l9 -634h944v-201h-1166z"/>
            <glyph unicode="M" horiz-adv-x="1445"
                   d="M20 -8v1567h117q35 0 58.5 -9.5t47 -28t58.5 -74.5t73 -125t107 -206q61 -119 116.5 -222t88.5 -161.5t37 -58.5q12 0 242 442q70 137 107.5 206t72.5 125t59.5 74.5t47 28t57.5 9.5h116v-1567h-243l12 563q2 150 3 281v62q0 88 -2 144q-3 74 -9 74q-20 0 -182 -321 q-61 -123 -91 -177.5t-63 -92.5t-56.5 -45t-69.5 -7t-70.5 7t-57.5 45t-62.5 92.5t-91.5 177.5q-161 321 -180 321q-6 0 -9 -74.5t-3 -205.5t4 -281l12 -563h-246z"/>
            <glyph unicode="N" horiz-adv-x="1406"
                   d="M20 -49v1612l134 -13q37 -4 66.5 -18t64 -44t94 -107.5t128 -174t195.5 -278.5q428 -610 443 -611q6 -2 9 81t3 226.5t-4 311.5l-12 623h245v-1610l-149 10q-39 4 -60.5 9t-56.5 28.5t-61.5 52.5t-83.5 101.5t-112.5 150.5t-160.5 225q-403 569 -426 590q-2 2 -3 2 q-23 0 -23 -333v-27q2 -96 4 -203l12 -604h-246z"/>
            <glyph unicode="O" horiz-adv-x="1646"
                   d="M20 774q0 221 145.5 438.5t356.5 309.5q132 58 268 70q35 3 69 3q97 0 187 -24q120 -33 228 -105.5t185 -174t122 -235.5t45 -282q0 -422 -328 -661q-111 -80 -185.5 -100.5t-256.5 -20.5q-123 0 -230.5 16.5t-158.5 40.5q-180 92 -313.5 309t-133.5 416zM228 716 q14 -106 65 -205t130 -174t179 -121t206 -55q19 -2 39 -2q88 -1 182 33q114 40 212 134q117 111 165 263q33 103 33 204q1 47 -7 93q-22 144 -115 270t-236 185q-124 50 -244 50q-70 0 -139 -17q-186 -47 -327 -213q-88 -104 -123 -221q-25 -83 -25 -160q1 -33 5 -64z"/>
            <glyph unicode="P" horiz-adv-x="1230"
                   d="M20 33v1446h478q309 0 410.5 -14.5t168.5 -67.5q94 -77 123 -187q11 -42 11 -84q0 -69 -29 -139q-55 -131 -189.5 -181t-429.5 -50h-342v-363q0 -268 -12 -314t-88 -46h-101zM221 915h354q221 0 301 13.5t119 58.5q66 72 66 153q0 87 -68 148q-43 41 -133 55.5t-289 14.5 h-350v-443z"/>
            <glyph unicode="Q" horiz-adv-x="1540"
                   d="M20 805q-1 8 -1 16q0 133 55 271q57 145 172 262q63 61 154.5 119.5t154.5 76.5q106 29 207 29q107 0 208 -33q197 -63 357 -246q174 -199 191 -438q2 -26 2 -51q0 -211 -129 -401l-101 -146l101 -76q45 -37 67 -74q13 -24 13 -43q0 -12 -5 -22q-12 -37 -40.5 -28.5 t-106.5 67.5q-90 70 -126 74h-6q-37 0 -114 -41q-51 -27 -138 -46.5t-163 -19.5q-164 0 -305 63.5t-237.5 167t-151.5 241t-58 278.5zM219 764q14 -184 112.5 -311t268.5 -185q74 -22 168 -22q45 0 94 4q152 16 152 63q0 12 -50.5 64.5t-117.5 111.5q-100 82 -127 122 q-13 19 -13 36t15 31q14 14 34 14q18 0 42 -12q49 -25 159 -121q68 -61 112 -90t79 -39q10 -3 20 -3q23 0 41 17q25 23 45.5 67t44.5 124q28 94 28 185q0 121 -50 236q-88 203 -287 285q-133 55 -225 56q-111 0 -251 -83t-214 -198q-59 -86 -75 -152q-9 -41 -9 -106 q0 -42 4 -94z"/>
            <glyph unicode="R" horiz-adv-x="1398"
                   d="M20 -49v1646h523q180 0 293.5 -5t201.5 -16t140.5 -35.5t87 -58.5t63.5 -89q49 -90 49 -185q0 -12 -1 -24q-7 -107 -52 -193t-133 -140t-197 -56q-131 0 -131 -21q0 -23 498 -770q6 -10 6 -18q0 -25 -53 -31q-23 -4 -58 -4t-55 3t-49 20.5t-50.5 40t-62.5 75.5 t-80.5 113.5t-111.5 169.5q0 2 -6 10q-150 225 -203 293.5t-95 93.5t-126 25h-156v-844h-242zM262 956h397h165.5t111.5 4.5t78.5 9.5t50.5 20.5t41 29.5t35 45q61 76 61 150q0 98 -106 194q-47 41 -140.5 55.5t-316.5 14.5h-377v-523z"/>
            <glyph unicode="S" horiz-adv-x="1284"
                   d="M98 246q-79 127 -79 194q0 74 96 74q53 0 83.5 -26.5t53.5 -90.5q27 -78 100 -134q72 -57 161 -81q82 -23 173 -22h14q98 2 178 29.5t132.5 86t52.5 138.5q0 86 -45 138t-157.5 97t-348.5 107q-70 18 -156 60t-137 83q-76 63 -98.5 114.5t-22.5 155.5q4 143 51.5 223 t174.5 146q113 58 307 58h7q198 -1 329 -62q137 -66 213 -205q41 -74 41 -125q0 -36 -21 -61q-23 -27 -70 -27t-79.5 27.5t-57.5 89.5q-29 78 -107 128q-77 51 -170 61q-38 4 -75 4q-55 0 -109 -10q-90 -16 -153.5 -71t-71.5 -133q-3 -26 -3 -48q0 -29 5 -49q8 -36 49 -67.5 t107.5 -55t196.5 -56.5q342 -90 472 -198.5t130 -307.5q0 -123 -68 -222t-172 -156.5t-238 -77.5q-67 -10 -132 -10t-129 10q-128 20 -243.5 89.5t-183.5 182.5z"/>
            <glyph unicode="T" horiz-adv-x="1486" d="M20 1417v101h1446v-101q0 -70 -43 -84t-266 -24l-313 -13l-4 -641l-9 -643l-208 -24v1329h-301q-219 0 -260.5 14t-41.5 86z"/>
            <glyph unicode="U" horiz-adv-x="1206"
                   d="M20 1518h197l12 -607q8 -438 23.5 -533t85.5 -149q95 -80 248 -80q14 1 30 1q174 8 269 104q27 27 40 41t27.5 51t18.5 67.5t8 113.5t5 164t1 245v582h201v-590q0 -180 -4 -298t-18.5 -219.5t-34 -159.5t-57.5 -108.5t-84 -80t-116 -58.5q-102 -43 -243 -43q-45 1 -95 5 q-204 18 -313 97q-80 61 -121 156.5t-58 267t-17 482.5z"/>
            <glyph unicode="V" horiz-adv-x="1355"
                   d="M20 1522q0 14 29 25.5t68 11.5q57 0 86 -33q51 -59 190 -443q39 -106 117 -327q121 -332 149 -371q1 -1 2 -1q14 0 78 150q70 164 164 422q162 440 206 521.5t128 81.5q72 0 89 -13.5t-1 -56.5q-4 -12 -309 -825q-129 -344 -221.5 -548t-116 -204t-57 44t-58.5 103 q-90 211 -316.5 823.5t-226.5 639.5z"/>
            <glyph unicode="W" horiz-adv-x="1894"
                   d="M20 1370q0 116 37 116q3 0 6 -1q68 -16 177 -305q8 -25 18 -52q152 -416 231 -651l109 -301l117 270q74 162 114.5 215.5t94.5 53.5q51 0 91 -54.5t113 -214.5l121 -274l213 623q223 633 246 655q10 14 44 20q16 3 33 4q17 0 34 -4q49 -8 53 -30q1 -3 1 -7 q0 -45 -75 -241q-4 -8 -6 -14q-156 -391 -301 -777q-86 -217 -153.5 -353t-92.5 -136q-20 0 -75.5 92t-104.5 217q-133 317 -141 326q-2 2 -21.5 -39t-52.5 -116t-66 -159q-70 -171 -114 -245q-41 -68 -75 -68h-5q-33 8 -174.5 333t-268.5 680t-127 437z"/>
            <glyph unicode="X" horiz-adv-x="1220"
                   d="M20 1518h138q37 0 56 -1t44 -14.5t38 -27t38.5 -55.5t46 -81t61.5 -122q154 -301 172 -302q20 0 181 302q61 117 92 169t64.5 86.5t59 40t79.5 5.5q92 0 104 -17q5 -6 5 -17q0 -43 -69 -167q-35 -66 -169 -297l-218 -377l177 -338q176 -332 176 -360q0 -33 -119 -33 q-78 0 -121 39t-125 182q-125 221 -137 221q-14 0 -139 -221q-88 -152 -130 -186.5t-137 -34.5h-135l121 213q125 205 207 373l86 166q-229 434 -447 854z"/>
            <glyph unicode="Y" horiz-adv-x="1249"
                   d="M20 1518h138q51 0 76.5 -5.5t60.5 -41t65.5 -87t94.5 -167.5l159 -302l166 293q59 109 91 160t68 86t63.5 43t82.5 12l144 13l-449 -783q-338 -592 -411 -690q-66 -88 -127 -96q-14 -2 -45 -2q-121 2 -117 33q12 23 205 358l186 332z"/>
            <glyph unicode="Z" horiz-adv-x="1245"
                   d="M20 180q0 31 138.5 189.5t330.5 353.5l476 473h-476q-377 0 -432 21q-37 16 -37 61q0 43 35 57q59 20 482 23h86q219 0 327.5 -2t176 -10.5t83 -20.5t15.5 -37q0 -29 -138.5 -188.5t-330.5 -351.5l-475 -476h475q379 0 432 -18q37 -16 37 -61q0 -43 -35 -58 q-57 -22 -445 -22h-34h-88q-217 0 -326 2t-177.5 10t-84 19.5t-15.5 35.5z"/>
            <glyph unicode="["/>
            <glyph unicode="\"/>
            <glyph unicode="]"/>
            <glyph unicode="a" horiz-adv-x="823"
                   d="M22 456q-1 12 -1 24q0 62 36 114q43 62 136.5 112t218.5 64q139 18 174 38.5t35 82.5q0 76 -74 118q-56 32 -121 32q-21 1 -43 -3q-90 -14 -131 -82q-47 -74 -125 -79q-63 2 -68 55q0 25 31 65.5t74 75.5q104 80 292 85q12 0 22 1q169 0 231 -72q43 -49 71 -260 q23 -179 23 -343q0 -30 -1 -60q-5 -192 -44 -191q-25 0 -48.5 17.5t-31.5 42.5q-16 39 -39 39t-98 -39q-110 -58 -223 -58q-11 0 -22 1q-124 6 -198 77q-68 67 -76 143zM208 552q-23 -30 -23 -62q0 -35 30 -72q39 -46 107 -56q19 -3 38 -4q46 0 92 18q64 24 115.5 77.5 t61.5 119.5q2 11 2 21q0 48 -43 60q-16 4 -43 5q-57 0 -160 -20q-127 -23 -177 -87z"/>
            <glyph unicode="b" horiz-adv-x="804"
                   d="M20 774q0 393 11.5 508t48.5 115q55 0 86 -197l22 -192l134 41q62 18 118 19q122 0 212 -90q132 -130 132 -392q0 -193 -99 -312.5t-259 -119.5q-59 0 -119.5 15t-81.5 36q-33 31 -46 31t-25 -31q-10 -23 -32 -37t-46 -14q-16 0 -26.5 24.5t-17.5 95t-9.5 188t-2.5 312.5 zM180 694q-16 -68 -16 -129q0 -90 34 -166q58 -127 173 -127q106 0 158.5 35t84.5 123q19 51 19 121q1 63 -15 141q-34 164 -100 211q-65 48 -123 48q-42 -1 -81 -25q-93 -58 -134 -232z"/>
            <glyph unicode="c" horiz-adv-x="798"
                   d="M20 573q0 205 44 297.5t169 149.5q74 33 165 33t167 -24.5t127 -73t51 -103.5q-1 -46 -29 -60q-12 -6 -27 -6q-20 0 -45 12q-44 20 -87 66q-81 84 -143 87h-5q-60 0 -149 -72q-60 -47 -78 -101q-14 -44 -15 -133q0 -20 1 -43q2 -186 54 -258t186 -72q82 0 119.5 20.5 t64.5 80.5q18 43 53 71.5t68 28.5q69 0 69 -24t-57 -132q-51 -102 -117.5 -132.5t-226.5 -30.5q-184 0 -271.5 102t-87.5 317z"/>
            <glyph unicode="d" horiz-adv-x="808"
                   d="M26 688q24 168 128 256q82 72 223 90q34 4 62 5q88 0 116 -44q26 -44 47 -44q19 0 33 38q20 53 20 168q0 123 14.5 162t57.5 39q35 0 43 -17q18 -33 18 -290q0 -78 -2 -177q0 -94 -10 -669q0 -20 -18.5 -35.5t-42 -15.5t-42 12t-18.5 31q0 13 -14 13q-15 0 -45 -15 q-14 -8 -29 -19q-79 -57 -153 -61h-13q-70 0 -163 41q-116 56 -176 210q-42 109 -43 225q0 48 7 97zM174 573q0 -147 62.5 -243.5t158.5 -96.5q90 0 153.5 61.5t86.5 178.5q11 53 11 102q0 151 -103 273q-55 60 -122 68q-11 1 -21 2q-54 0 -99 -33q-53 -39 -90 -122 t-37 -190z"/>
            <glyph unicode="e" horiz-adv-x="894"
                   d="M24 763q14 130 85.5 242.5t171.5 155.5q84 34 162 34q103 -1 195 -59q162 -102 208 -333l28 -129h-350q-150 0 -219 -5t-102 -27q-24 -16 -24 -38q-1 -9 3 -18q12 -35 62 -105q59 -86 190 -89h9q125 0 198 81q31 35 67.5 58.5t61.5 23.5q52 0 52 -40q0 -14 -7 -34 q-20 -57 -90 -127q-95 -88 -237 -96q-15 -1 -29 -1q-126 -1 -236 61q-123 68 -168 188q-34 96 -34 194q-1 31 3 63zM180 882q-10 -32 14.5 -51.5t83 -27.5t162.5 -8q264 0 265 67q0 45 -109 129q-98 79 -184 79q-99 0 -181 -105q-41 -51 -51 -83z"/>
            <glyph unicode="f" horiz-adv-x="557"
                   d="M20 1015.5q0 24.5 18.5 42t41.5 17.5q29 0 45 25.5t16 68.5q0 37 18.5 91.5t45.5 89.5q55 78 184 92q22 2 40 2q78 0 101 -41q8 -14 5 -33q-6 -33 -40 -56.5t-85 -29.5q-63 -8 -86 -31.5t-23 -78.5q0 -53 18.5 -76t61.5 -23q35 0 58.5 -17.5t23.5 -42t-23.5 -42 t-58.5 -17.5q-55 0 -67.5 -57t-12.5 -324.5t-11 -324.5t-68.5 -57t-69 57t-11.5 323q0 233 -12 308t-49 75q-23 0 -41.5 17.5t-18.5 42z"/>
            <glyph unicode="g" horiz-adv-x="827"
                   d="M30 870q27 130 117 226q76 82 197 98q28 4 55 4q90 0 170 -41q38 -21 57 -21t19 21q0 14 24.5 26.5t57.5 12.5q57 0 68.5 -67.5t11.5 -393.5q0 -182 -7 -300t-23.5 -207t-49.5 -140t-78 -82t-114 -51q-78 -18 -148 -18q-46 0 -88 7q-109 19 -182.5 85.5t-73.5 154.5 q0 28 33 28q15 0 39 -7q78 -20 102 -70q2 -4 4 -6q12 -37 86 -50q33 -6 68 -6q43 0 88 9q82 16 119 55q27 23 45 70t18 86q0 70 -15 75q-1 1 -4 1q-19 0 -87 -35q-79 -42 -157 -42q-72 0 -142 37q-146 77 -197 265q-23 86 -23 168q0 55 10 108zM180 852q-9 -39 -9 -84 q0 -51 11 -112q23 -113 70 -171q43 -53 130 -53q16 0 34 2q114 12 166 88q64 88 64 223v25q-7 153 -81 225q-77 77 -158 77q-33 0 -67 -13q-117 -45 -160 -207z"/>
            <glyph unicode="h" horiz-adv-x="763"
                   d="M20 748v88q0 485 19 555q25 45 61 47q51 0 65.5 -36t14.5 -165q0 -160 19 -176q12 -10 59 14q75 40 172 40q22 0 44 -2q124 -11 190 -77q51 -51 65 -131t14 -311q0 -252 -12 -306.5t-67 -54.5q-20 0 -31.5 3.5t-22 16.5t-14.5 31.5t-8 60.5t-4 90v130q0 182 -15.5 270.5 t-51.5 124t-111 35.5q-127 0 -176.5 -98t-49.5 -350v-124t-4 -85t-8 -56.5t-14.5 -30.5t-21.5 -15.5t-32 -2.5q-43 0 -57 35q-23 59 -23 480z"/>
            <glyph unicode="i" horiz-adv-x="200" d="M20 594q0 311 11.5 376.5t69 65.5t68.5 -65.5t11 -376.5t-11 -375.5t-68.5 -64.5t-69 64.5t-11.5 375.5zM20 1277q0 81 80 81t80 -81t-80 -81t-80 81z"/>
            <glyph unicode="j" horiz-adv-x="362"
                   d="M20 -113q0 27 24 45.5t56 18.5q78 0 84 33q0 6 1 76.5t3.5 206.5t4.5 255q4 186 7 277.5t12 151t22.5 72.5t39.5 13q47 0 56 -91q6 -56 6 -231q0 -110 -2 -268l-12 -596l-148 -10q-35 -2 -61 -2q-41 0 -61 6q-32 9 -32 43zM209 1317q10 33 32.5 56.5t43.5 23.5 q25 0 41 -23.5t16 -56.5q0 -80 -76 -80q-43 0 -56 17q-7 10 -7 26q0 15 6 37z"/>
            <glyph unicode="k" horiz-adv-x="712"
                   d="M21 744q0 505 2 544q8 29 65 29q35 0 47 -64.5t12 -257.5q0 -86 5.5 -160.5t12.5 -117.5t15 -43q12 0 69.5 49t119.5 113q63 66 130.5 112.5t98.5 46.5q68 0 68 -26q0 -35 -140 -178l-145 -148l117 -178q78 -104 168 -260q26 -49 26 -69q0 -4 -2 -6q-6 -16 -59 -17 q-86 0 -209 200q-51 82 -96 141.5t-54 59.5q-51 0 -88 -73.5t-37 -176.5q0 -82 -13 -116.5t-46 -34.5q-25 0 -43 20.5t-22 50.5q-2 55 -2 560z"/>
            <glyph unicode="l" horiz-adv-x="200" d="M20 670v104q0 504 19 576q25 45 61 47q45 0 58 -35q22 -57 22 -446v-35v-107q0 -502 -18 -573q-23 -45 -62 -47q-43 0 -57 32q-23 59 -23 484z"/>
            <glyph unicode="m" horiz-adv-x="1259"
                   d="M25 707q-4 143 -4 235q0 115 6 151q10 64 71 64q35 0 57.5 -19.5t22.5 -50.5q0 -45 10.5 -45t61.5 45q31 31 85 50.5t104 19.5t104.5 -19.5t85.5 -50.5q51 -45 71.5 -45t71.5 45q70 63 198 65q5 0 10 1q121 0 177 -61q37 -31 52.5 -117t21.5 -264q8 -346 8 -385 q2 -29 -17.5 -53.5t-47.5 -30.5q-7 -1 -13 -1q-37 0 -47 48q-12 57 -12 297q0 104 -4 173.5t-13.5 125t-26 84t-41 47t-58 15.5t-78.5 -11q-102 -27 -141.5 -138.5t-39.5 -371.5q0 -186 -11 -232q-9 -39 -42 -39q-7 -1 -14 1q-45 10 -60.5 74.5t-25.5 279.5 q-8 313 -29.5 377.5t-114.5 64.5q-123 0 -174 -112.5t-51 -380.5q0 -209 -12 -261q-9 -42 -40 -42q-7 0 -15 2q-18 2 -28.5 9t-20 29.5t-14.5 50t-9 84t-7 121.5t-7 171z"/>
            <glyph unicode="n" horiz-adv-x="763"
                   d="M20 731q0 373 19 428q16 37 61 37q33 0 56.5 -12.5t23.5 -26.5q0 -20 19.5 -20.5t58.5 20.5q74 39 168 39q23 0 48 -2q124 -12 190 -78q51 -51 65 -134t14 -331q0 -139 -2 -207.5t-10 -110.5t-19.5 -49.5t-35.5 -2.5q-45 10 -60.5 74.5t-25.5 279.5q-6 186 -23.5 277.5 t-54.5 127t-111 35.5q-117 0 -168 -101.5t-59 -359.5q-10 -203 -24.5 -263t-57.5 -70q-25 -4 -38 5t-21 60t-10.5 133t-2.5 252z"/>
            <glyph unicode="o" horiz-adv-x="866"
                   d="M34 750q32 138 128 229q82 77 190 95q38 7 76 6q68 0 130 -22q97 -34 174 -116t102 -194q11 -64 11 -125q0 -29 -3 -59q-8 -88 -43 -159t-83 -127.5t-113.5 -87t-134.5 -38.5q-15 -2 -31 -1q-55 0 -113 20q-74 26 -142 83q-102 86 -141 222q-21 75 -21 150q0 62 14 124z M177 606q3 -98 46 -188q41 -92 127 -127q44 -18 87 -18l85 17q86 34 127 124q43 94 43 198q0 45 -8 93q-26 156 -123 219q-48 32 -121 32h-4q-78 0 -139 -50t-92 -126q-28 -69 -28 -156v-18z"/>
            <glyph unicode="p" horiz-adv-x="808"
                   d="M20 344v111q0 362 11.5 491t40.5 129q23 0 51.5 -12t46.5 -31q22 -22 39 -22t29 22q12 18 66 30.5t118 12.5q90 0 142 -24.5t116 -98.5q92 -113 106 -272q3 -29 3 -57q0 -128 -55 -241q-66 -138 -187 -189q-79 -33 -140 -33q-8 0 -15 1q-66 5 -187 56q-24 10 -40 10 t-22 -12q-2 -7 -2 -22q0 -43 17 -152q6 -53 9 -83t3 -56.5t-3 -37.5t-12.5 -20.5t-21.5 -10.5t-33 -1q-43 0 -57 33q-23 59 -23 479zM186 720q-7 -54 -7 -107q0 -59 9 -117q19 -111 66 -154q70 -65 152 -65q2 0 4 1q84 1 145 68q45 49 63 163q8 55 8 110q0 58 -10 115 q-18 110 -65 153q-72 65 -154 65h-4q-84 -2 -143 -69q-47 -49 -64 -163z"/>
            <glyph unicode="q" horiz-adv-x="827"
                   d="M25 582q-4 40 -4 78q0 107 33 203q44 131 136 194q74 53 202 56h15q116 0 160 -44q31 -31 49.5 -31t34.5 35q16 23 45 32t56 -1q43 -14 51 -123q5 -62 5 -219q0 -118 -3 -289q-4 -217 -7 -324.5t-12.5 -177t-21.5 -85t-35 -15.5q-45 0 -59.5 39t-14.5 162q0 162 -16 176 q-14 10 -59 -15q-70 -40 -144 -40q-17 0 -34 3q-93 11 -170.5 58t-134 135t-72.5 193zM174 647q0 -96 31 -173t82 -114.5t109 -45.5q10 -2 20 -2q47 0 95 32q58 39 101 117q40 82 40 181q0 48 -10 100q-28 160 -122 223q-53 38 -106 38q-10 0 -20 -1q-62 -9 -110 -52 t-79 -124t-31 -179z"/>
            <glyph unicode="r" horiz-adv-x="483"
                   d="M20 674q0 272 12.5 357t47.5 85q25 0 43 -20.5t18 -46.5q2 -51 8.5 -51.5t34.5 51.5q18 29 62.5 48t95.5 19q72 0 96.5 -16.5t24.5 -67.5q1 -48 -17 -62q-9 -7 -26 -7q-16 0 -39 6q-21 5 -39 5q-94 0 -138 -139q-34 -109 -34 -291q0 -98 10 -218q1 -10 1 -18 q0 -37 -14 -54q-17 -21 -63 -21q-59 0 -71.5 63t-12.5 378z"/>
            <glyph unicode="s" horiz-adv-x="759"
                   d="M22 501q-2 6 -1 12q0 33 51 52q10 3 20 3q20 0 42 -13q32 -20 59 -66q57 -84 171 -96q16 -2 30 -2q91 0 145 64q32 40 32 74q0 30 -24 55q-51 55 -225 106q-230 68 -284 188q-16 34 -15 70q0 90 98 189q27 27 93.5 43t141.5 16q106 0 158.5 -21.5t103.5 -87.5 q43 -55 54.5 -77.5t3.5 -33.5t-45 -24q-18 -6 -35 -6q-52 0 -90 58q-37 51 -112 65q-26 5 -50 5q-46 0 -86 -18q-61 -26 -61 -81q0 -45 50 -80t183 -84q96 -33 177 -75t95 -66q38 -62 38 -121q0 -75 -60 -146q-96 -111 -262 -129q-26 -3 -52 -3q-149 0 -249 102 q-85 86 -95 128z"/>
            <glyph unicode="t" horiz-adv-x="485"
                   d="M20 1055.5q0 23.5 18.5 42t41.5 18.5q61 0 61 121q0 51 19.5 95.5t52.5 60.5q25 14 40 14q13 0 19 -9q14 -20 21 -124q12 -158 69 -158q45 0 68 -21.5t10.5 -48t-55.5 -38.5q-39 -10 -55.5 -36t-22.5 -84.5t-6 -201.5q0 -139 6 -198.5t21.5 -85t52.5 -37.5q84 -22 84 -64 q0 -47 -82 -63q-27 -4 -57 -5q-47 0 -73 3.5t-49.5 21.5t-33.5 43t-18.5 81t-9.5 120.5t-1 175.5q0 193 -12 255t-49 62q-23 0 -41.5 18.5t-18.5 42z"/>
            <glyph unicode="u" horiz-adv-x="763"
                   d="M20 803q0 242 13.5 298t66.5 56q20 0 31.5 -3t22 -16.5t14.5 -33t8 -60t4 -90v-131.5q0 -182 15.5 -270t53.5 -124t118 -36q125 0 171 93.5t46 353.5v124t4 86t8 57t14.5 30.5t21.5 16.5t32 3q57 0 68 -65.5t11 -377t-11 -377t-68 -65.5q-33 0 -56.5 12.5t-23.5 28.5 t-20 16q-21 0 -66 -18q-16 -8 -35 -18q-90 -44 -164 -44q-29 0 -57 7q-88 25 -135.5 79t-67 162.5t-19.5 305.5z"/>
            <glyph unicode="v" horiz-adv-x="796"
                   d="M20 1128q0 12 20.5 20.5t51.5 8.5q43 0 83 -75.5t101 -274.5l117 -352l125 352q74 203 115 276.5t82 73.5q33 0 50 -13.5t11 -35.5q-6 -12 -27.5 -73.5t-60.5 -171t-70 -197.5q-84 -246 -124.5 -320t-96.5 -74q-53 0 -96 76t-135 338q-146 405 -146 442z"/>
            <glyph unicode="w" horiz-adv-x="1236"
                   d="M20 1128q0 12 21.5 20.5t54.5 8.5q43 0 78 -70.5t92 -279.5l92 -352l93 301q92 291 92 352q0 18 23.5 33.5t51.5 15.5q119 0 234 -571q16 -74 29 -74q18 2 90 242q6 18 14 41q106 342 172 354q10 2 18 2q40 0 42 -49v-5q0 -90 -123 -462q-80 -229 -120 -305t-85 -76 q-49 0 -82 62.5t-88 256.5q-61 229 -84 250q-4 3 -8 3q-17 0 -37 -48q-23 -53 -84 -264q-41 -152 -72 -206t-72 -54q-47 0 -89 85t-119 335q-134 427 -134 454z"/>
            <glyph unicode="x" horiz-adv-x="788"
                   d="M20 292q0 25 107 175l2 2l2 2l2 2q59 84 101 155.5t42 86t-42 86t-101 155.5q-113 155 -113 182v1q4 18 64 18q92 0 188 -141q41 -57 77 -99.5t48 -42.5q14 0 49 41t72 101q39 61 86 101t78 40q70 0 70 -27v-1q0 -33 -125 -211q-4 -4 -9 -11l-141 -192l162 -221 q129 -174 129 -201q-10 -18 -66 -21q-100 0 -184 142q-37 59 -71.5 100t-49.5 41q-12 0 -48 -42t-77 -99q-96 -141 -188 -142q-64 0 -64 20z"/>
            <glyph unicode="y" horiz-adv-x="794"
                   d="M27 1133q-12 41 0 53t55 2q43 -6 86 -82t102 -250q113 -322 125 -334q4 -2 23.5 39t50.5 117t63 166q53 154 103.5 246t81.5 98q12 3 21 3q36 0 36 -38q0 -75 -145 -481q-12 -35 -29 -78q-141 -391 -238 -540q-89 -136 -182 -136q-10 0 -20 2q-57 8 -82 44q-14 20 -14 40 q0 16 8 32q20 36 75 44q37 6 78 38t58 70q20 37 20 89q0 27 -5 59q-17 90 -108 334q-161 453 -163 463z"/>
            <glyph unicode="z" horiz-adv-x="847"
                   d="M20 317q0 18 84 131t201 250l281 338h-240q-145 0 -195.5 12.5t-50.5 48.5t72 48t291 12h364l-47 -88q-47 -88 -291 -375l-239 -280l285 -13q166 -6 227 -20.5t61 -46.5q0 -37 -78.5 -49.5t-322.5 -12.5q-401 0 -402 45z"/>
            <glyph unicode="{"/>
            <glyph unicode="|"/>
            <glyph unicode="}"/>
            <glyph unicode="~"/>
            <glyph unicode="&#xa2;"/>
            <glyph unicode="&#xa3;"/>
            <glyph unicode="&#xab;"/>
            <glyph unicode="&#xad;" horiz-adv-x="522"
                   d="M20 654.5q0 27.5 1.5 42t11.5 27.5t21.5 17t44 8.5t65.5 5.5t98.5 1t98 -1t64.5 -5.5t43 -8.5t21.5 -17t11.5 -27.5t1 -42t-1 -41t-11.5 -27t-21.5 -18.5t-43 -9t-64.5 -4h-98h-98.5t-65.5 4t-44 9t-21.5 18.5t-11.5 27t-1.5 41z"/>
            <glyph unicode="&#xbb;"/>
            <glyph unicode="&#x2000;" horiz-adv-x="798"/>
            <glyph unicode="&#x2001;" horiz-adv-x="1597"/>
            <glyph unicode="&#x2002;" horiz-adv-x="798"/>
            <glyph unicode="&#x2003;" horiz-adv-x="1597"/>
            <glyph unicode="&#x2004;" horiz-adv-x="532"/>
            <glyph unicode="&#x2005;" horiz-adv-x="399"/>
            <glyph unicode="&#x2006;" horiz-adv-x="266"/>
            <glyph unicode="&#x2007;" horiz-adv-x="266"/>
            <glyph unicode="&#x2008;" horiz-adv-x="199"/>
            <glyph unicode="&#x2009;" horiz-adv-x="319"/>
            <glyph unicode="&#x200a;" horiz-adv-x="88"/>
            <glyph unicode="&#x2010;" horiz-adv-x="522"
                   d="M20 654.5q0 27.5 1.5 42t11.5 27.5t21.5 17t44 8.5t65.5 5.5t98.5 1t98 -1t64.5 -5.5t43 -8.5t21.5 -17t11.5 -27.5t1 -42t-1 -41t-11.5 -27t-21.5 -18.5t-43 -9t-64.5 -4h-98h-98.5t-65.5 4t-44 9t-21.5 18.5t-11.5 27t-1.5 41z"/>
            <glyph unicode="&#x2011;" horiz-adv-x="522"
                   d="M20 654.5q0 27.5 1.5 42t11.5 27.5t21.5 17t44 8.5t65.5 5.5t98.5 1t98 -1t64.5 -5.5t43 -8.5t21.5 -17t11.5 -27.5t1 -42t-1 -41t-11.5 -27t-21.5 -18.5t-43 -9t-64.5 -4h-98h-98.5t-65.5 4t-44 9t-21.5 18.5t-11.5 27t-1.5 41z"/>
            <glyph unicode="&#x2012;" horiz-adv-x="522"
                   d="M20 654.5q0 27.5 1.5 42t11.5 27.5t21.5 17t44 8.5t65.5 5.5t98.5 1t98 -1t64.5 -5.5t43 -8.5t21.5 -17t11.5 -27.5t1 -42t-1 -41t-11.5 -27t-21.5 -18.5t-43 -9t-64.5 -4h-98h-98.5t-65.5 4t-44 9t-21.5 18.5t-11.5 27t-1.5 41z"/>
            <glyph unicode="&#x2013;" horiz-adv-x="1064"
                   d="M20 654.5q0 27.5 3 42t24.5 27.5t46 17t93.5 8.5t139 5.5t209 1t208 -1t137 -5.5t91.5 -8.5t46 -17t24.5 -27.5t2 -42t-2 -41t-24.5 -27t-46 -18.5t-91.5 -9t-137 -4h-208h-209t-139 4t-93.5 9t-46 18.5t-24.5 27t-3 41z"/>
            <glyph unicode="&#x2014;" horiz-adv-x="2088"
                   d="M20 654.5q0 27.5 6.5 42t49 27.5t91 17t187 8.5t278.5 5.5t418.5 1t416.5 -1t274 -5.5t182.5 -8.5t91.5 -17t49 -27.5t4 -42t-4 -41t-49 -27t-91.5 -18.5t-182.5 -9t-274 -4h-416.5h-418.5t-278.5 4t-187 9t-91 18.5t-49 27t-6.5 41z"/>
            <glyph unicode="&#x2019;"/>
            <glyph unicode="&#x201c;" horiz-adv-x="761"
                   d="M22.5 303q-8.5 31 20.5 107q10 27 46 45t75 18q63 0 79.5 -26.5t16.5 -129.5q0 -154 -80 -241q-70 -76 -125 -25q-10 10 -20 25q-10 20 1 44.5t40 39.5q39 23 54 49.5t2 44.5t-52 18q-49 0 -57.5 31zM502 373q0 63 22.5 81.5t98.5 18.5q84 0 101 -22.5t17 -133.5 q0 -145 -75 -239q-63 -76 -111 -31q-14 14 -25 41q-10 25 0.5 48.5t34.5 31.5q37 14 50.5 39.5t-2 45t-52.5 19.5q-27 0 -43 27t-16 74z"/>
            <glyph unicode="&#x201d;" horiz-adv-x="643"
                   d="M20 1237q0 160 80 242q33 31 70 55.5t51 24.5q27 0 35 -26t-3 -62.5t-40 -69.5q-31 -33 -31 -46.5t31 -25.5q18 -10 33.5 -50t15.5 -87q0 -78 -21.5 -97.5t-99.5 -19.5q-86 0 -103.5 23.5t-17.5 138.5zM381 1237q0 160 82 242q33 31 68.5 55.5t52.5 24.5q27 0 35 -26 t-4.5 -62.5t-39.5 -69.5q-31 -33 -30.5 -46.5t30.5 -25.5q18 -10 33 -50t15 -87q0 -78 -20.5 -97.5t-100.5 -19.5q-84 0 -102.5 23.5t-18.5 138.5z"/>
            <glyph unicode="&#x2022;"/>
            <glyph unicode="&#x202f;" horiz-adv-x="319"/>
            <glyph unicode="&#x205f;" horiz-adv-x="399"/>
            <glyph unicode="&#x20ac;"/>
            <glyph unicode="&#x25fc;" horiz-adv-x="1157" d="M0 0v1157h1157v-1157h-1157z"/>
        </font>
</defs>
</svg>
