<svg width="200" height="200" xmlns="http://www.w3.org/2000/svg" preserveAspectRatio="xMidYMid meet">
 <metadata>Created by potrace 1.14, written by Peter Selinger 2001-2017</metadata>

 <g>
  <title>background</title>
  <rect fill="none" id="canvas_background" height="202" width="202" y="-1" x="-1"/>
 </g>
 <g>
  <title>Layer 1</title>
  <g id="svg_1" fill="#000000" transform="translate(0,200) scale(0.10000000149011612,-0.10000000149011612) ">
   <path fill="#cc181e" id="svg_2" d="m1200,1975c-57,-18 -124,-75 -151,-127c-11,-22 -23,-65 -26,-95c-5,-47 11,-240 23,-285c4,-14 0,-15 -32,-8c-63,14 -95,3 -254,-94c-278,-167 -258,-151 -383,-319c-115,-153 -147,-204 -147,-231c0,-36 165,-313 403,-678l97,-148l275,0l275,0l15,33c18,39 525,1327 525,1334c0,2 -19,13 -42,23c-80,36 -167,20 -234,-45l-41,-40l-7,179c-3,99 -6,220 -6,269l0,90l-62,-6c-35,-4 -72,-8 -83,-9c-11,-2 -20,3 -22,12c-26,170 -23,160 -51,159c-15,0 -47,-7 -72,-14zm60,-117c26,-168 89,-854 90,-991c0,-10 5,-15 10,-12c16,10 12,558 -5,705c-22,188 -23,187 25,201c22,7 43,9 47,5c4,-4 9,-234 11,-511c4,-447 10,-560 26,-482c3,12 12,104 20,205c16,188 26,225 78,292c42,54 137,88 174,62c6,-4 -75,-222 -230,-618c-133,-335 -247,-622 -253,-637l-13,-27l-239,0l-240,0l-77,118c-127,194 -324,513 -362,584l-35,67l28,43c25,37 196,269 215,291c3,4 30,-22 58,-58c66,-82 70,-122 18,-208l-35,-58l40,-29c84,-61 206,-62 292,-3c40,28 77,79 77,108c0,9 -16,68 -35,130l-35,113l-76,-39c-101,-53 -137,-52 -221,2c-35,23 -62,46 -60,52c3,9 289,188 368,231c39,20 89,17 122,-8c11,-9 42,-94 83,-227c63,-203 77,-239 89,-228c3,3 -19,111 -49,240c-57,247 -91,483 -84,574c6,75 44,129 111,160c28,13 52,23 54,22c1,-2 7,-33 13,-69zm-360,-878l23,-81l-28,-29c-54,-57 -138,-72 -217,-41l-27,10l24,53c14,29 25,67 25,84c0,30 2,32 48,38c26,4 63,15 82,26c19,11 38,19 41,20c3,0 17,-36 29,-80z"/>
  </g>
 </g>
</svg>