<svg width="50" height="50" xmlns="http://www.w3.org/2000/svg">

 <g>
  <title>background</title>
  <rect fill="none" id="canvas_background" height="402" width="582" y="-1" x="-1"/>
 </g>
 <g>
  <title>Layer 1</title>
  <path id="svg_1" fill="#cc181e" d="m25.85,10.126c2.018,-4.783 6.628,-8.125 11.99,-8.125c7.223,0 12.425,6.179 13.079,13.543c0,0 0.353,1.828 -0.424,5.119c-1.058,4.482 -3.545,8.464 -6.898,11.503l-17.747,15.834l-17.448,-15.835c-3.353,-3.038 -5.84,-7.021 -6.898,-11.503c-0.777,-3.291 -0.424,-5.119 -0.424,-5.119c0.654,-7.364 5.856,-13.543 13.079,-13.543c5.363,0 9.673,3.343 11.691,8.126z"/>
  <path id="svg_2" fill="#ED7161" d="m6,18.078c-0.553,0 -1,-0.447 -1,-1c0,-5.514 4.486,-10 10,-10c0.553,0 1,0.447 1,1s-0.447,1 -1,1c-4.411,0 -8,3.589 -8,8c0,0.553 -0.447,1 -1,1z"/>
  <g id="svg_3"/>
  <g id="svg_4"/>
  <g id="svg_5"/>
  <g id="svg_6"/>
  <g id="svg_7"/>
  <g id="svg_8"/>
  <g id="svg_9"/>
  <g id="svg_10"/>
  <g id="svg_11"/>
  <g id="svg_12"/>
  <g id="svg_13"/>
  <g id="svg_14"/>
  <g id="svg_15"/>
  <g id="svg_16"/>
  <g id="svg_17"/>
 </g>
</svg>